%TF.GenerationSoftware,KiCad,Pcbnew,5.1.6-c6e7f7d~86~ubuntu18.04.1*%
%TF.CreationDate,2020-05-18T18:47:09-04:00*%
%TF.ProjectId,battery,62617474-6572-4792-9e6b-696361645f70,rev?*%
%TF.SameCoordinates,Original*%
%TF.FileFunction,Soldermask,Top*%
%TF.FilePolarity,Negative*%
%FSLAX46Y46*%
G04 Gerber Fmt 4.6, Leading zero omitted, Abs format (unit mm)*
G04 Created by KiCad (PCBNEW 5.1.6-c6e7f7d~86~ubuntu18.04.1) date 2020-05-18 18:47:09*
%MOMM*%
%LPD*%
G01*
G04 APERTURE LIST*
%ADD10O,1.800000X1.800000*%
%ADD11R,1.800000X1.800000*%
%ADD12C,2.700000*%
%ADD13R,1.600000X2.100000*%
%ADD14R,3.900000X2.100000*%
%ADD15R,1.800000X0.750000*%
G04 APERTURE END LIST*
D10*
%TO.C,J1*%
X151130000Y-101600000D03*
X148590000Y-101600000D03*
X146050000Y-101600000D03*
X143510000Y-101600000D03*
X140970000Y-101600000D03*
X138430000Y-101600000D03*
D11*
X135890000Y-101600000D03*
%TD*%
D12*
%TO.C,J3*%
X152400000Y-83820000D03*
%TD*%
%TO.C,J2*%
X134620000Y-83820000D03*
%TD*%
D13*
%TO.C,U2*%
X142000000Y-83870000D03*
X137400000Y-83870000D03*
X139700000Y-83870000D03*
D14*
X139700000Y-90170000D03*
%TD*%
D15*
%TO.C,U1*%
X139860000Y-96520000D03*
X139860000Y-95250000D03*
X139860000Y-93980000D03*
X139860000Y-92710000D03*
X147160000Y-92710000D03*
X147160000Y-93980000D03*
X147160000Y-95250000D03*
X147160000Y-96520000D03*
%TD*%
%TO.C,R2*%
G36*
G01*
X145392544Y-85597500D02*
X146707456Y-85597500D01*
G75*
G02*
X146975000Y-85865044I0J-267544D01*
G01*
X146975000Y-86854956D01*
G75*
G02*
X146707456Y-87122500I-267544J0D01*
G01*
X145392544Y-87122500D01*
G75*
G02*
X145125000Y-86854956I0J267544D01*
G01*
X145125000Y-85865044D01*
G75*
G02*
X145392544Y-85597500I267544J0D01*
G01*
G37*
G36*
G01*
X145392544Y-88572500D02*
X146707456Y-88572500D01*
G75*
G02*
X146975000Y-88840044I0J-267544D01*
G01*
X146975000Y-89829956D01*
G75*
G02*
X146707456Y-90097500I-267544J0D01*
G01*
X145392544Y-90097500D01*
G75*
G02*
X145125000Y-89829956I0J267544D01*
G01*
X145125000Y-88840044D01*
G75*
G02*
X145392544Y-88572500I267544J0D01*
G01*
G37*
%TD*%
%TO.C,R1*%
G36*
G01*
X147932544Y-85597500D02*
X149247456Y-85597500D01*
G75*
G02*
X149515000Y-85865044I0J-267544D01*
G01*
X149515000Y-86854956D01*
G75*
G02*
X149247456Y-87122500I-267544J0D01*
G01*
X147932544Y-87122500D01*
G75*
G02*
X147665000Y-86854956I0J267544D01*
G01*
X147665000Y-85865044D01*
G75*
G02*
X147932544Y-85597500I267544J0D01*
G01*
G37*
G36*
G01*
X147932544Y-88572500D02*
X149247456Y-88572500D01*
G75*
G02*
X149515000Y-88840044I0J-267544D01*
G01*
X149515000Y-89829956D01*
G75*
G02*
X149247456Y-90097500I-267544J0D01*
G01*
X147932544Y-90097500D01*
G75*
G02*
X147665000Y-89829956I0J267544D01*
G01*
X147665000Y-88840044D01*
G75*
G02*
X147932544Y-88572500I267544J0D01*
G01*
G37*
%TD*%
M02*
