%TF.GenerationSoftware,KiCad,Pcbnew,5.1.6-c6e7f7d~86~ubuntu18.04.1*%
%TF.CreationDate,2020-05-18T18:47:09-04:00*%
%TF.ProjectId,battery,62617474-6572-4792-9e6b-696361645f70,rev?*%
%TF.SameCoordinates,Original*%
%TF.FileFunction,Copper,L1,Top*%
%TF.FilePolarity,Positive*%
%FSLAX46Y46*%
G04 Gerber Fmt 4.6, Leading zero omitted, Abs format (unit mm)*
G04 Created by KiCad (PCBNEW 5.1.6-c6e7f7d~86~ubuntu18.04.1) date 2020-05-18 18:47:09*
%MOMM*%
%LPD*%
G01*
G04 APERTURE LIST*
%TA.AperFunction,ComponentPad*%
%ADD10O,1.700000X1.700000*%
%TD*%
%TA.AperFunction,ComponentPad*%
%ADD11R,1.700000X1.700000*%
%TD*%
%TA.AperFunction,ComponentPad*%
%ADD12C,2.600000*%
%TD*%
%TA.AperFunction,SMDPad,CuDef*%
%ADD13R,1.500000X2.000000*%
%TD*%
%TA.AperFunction,SMDPad,CuDef*%
%ADD14R,3.800000X2.000000*%
%TD*%
%TA.AperFunction,SMDPad,CuDef*%
%ADD15R,1.700000X0.650000*%
%TD*%
%TA.AperFunction,Conductor*%
%ADD16C,0.750000*%
%TD*%
%TA.AperFunction,Conductor*%
%ADD17C,0.250000*%
%TD*%
%TA.AperFunction,Conductor*%
%ADD18C,0.500000*%
%TD*%
%TA.AperFunction,Conductor*%
%ADD19C,0.254000*%
%TD*%
G04 APERTURE END LIST*
D10*
%TO.P,J1,7*%
%TO.N,GND*%
X151130000Y-101600000D03*
%TO.P,J1,6*%
X148590000Y-101600000D03*
%TO.P,J1,5*%
%TO.N,T*%
X146050000Y-101600000D03*
%TO.P,J1,4*%
%TO.N,SDA*%
X143510000Y-101600000D03*
%TO.P,J1,3*%
%TO.N,SCL*%
X140970000Y-101600000D03*
%TO.P,J1,2*%
%TO.N,12v*%
X138430000Y-101600000D03*
D11*
%TO.P,J1,1*%
X135890000Y-101600000D03*
%TD*%
D12*
%TO.P,J3,1*%
%TO.N,GND*%
X152400000Y-83820000D03*
%TD*%
%TO.P,J2,1*%
%TO.N,12v*%
X134620000Y-83820000D03*
%TD*%
D13*
%TO.P,U2,1*%
%TO.N,GND*%
X142000000Y-83870000D03*
%TO.P,U2,3*%
%TO.N,12v*%
X137400000Y-83870000D03*
%TO.P,U2,2*%
%TO.N,3.3v*%
X139700000Y-83870000D03*
D14*
X139700000Y-90170000D03*
%TD*%
D15*
%TO.P,U1,8*%
%TO.N,3.3v*%
X139860000Y-96520000D03*
%TO.P,U1,7*%
%TO.N,SCL*%
X139860000Y-95250000D03*
%TO.P,U1,6*%
%TO.N,Net-(U1-Pad6)*%
X139860000Y-93980000D03*
%TO.P,U1,5*%
%TO.N,SDA*%
X139860000Y-92710000D03*
%TO.P,U1,4*%
%TO.N,GND*%
X147160000Y-92710000D03*
%TO.P,U1,3*%
%TO.N,CurrentSensor*%
X147160000Y-93980000D03*
%TO.P,U1,2*%
%TO.N,VBatSensor*%
X147160000Y-95250000D03*
%TO.P,U1,1*%
%TO.N,T*%
X147160000Y-96520000D03*
%TD*%
%TO.P,R2,1*%
%TO.N,12v*%
%TA.AperFunction,SMDPad,CuDef*%
G36*
G01*
X145425000Y-85647500D02*
X146675000Y-85647500D01*
G75*
G02*
X146925000Y-85897500I0J-250000D01*
G01*
X146925000Y-86822500D01*
G75*
G02*
X146675000Y-87072500I-250000J0D01*
G01*
X145425000Y-87072500D01*
G75*
G02*
X145175000Y-86822500I0J250000D01*
G01*
X145175000Y-85897500D01*
G75*
G02*
X145425000Y-85647500I250000J0D01*
G01*
G37*
%TD.AperFunction*%
%TO.P,R2,2*%
%TO.N,VBatSensor*%
%TA.AperFunction,SMDPad,CuDef*%
G36*
G01*
X145425000Y-88622500D02*
X146675000Y-88622500D01*
G75*
G02*
X146925000Y-88872500I0J-250000D01*
G01*
X146925000Y-89797500D01*
G75*
G02*
X146675000Y-90047500I-250000J0D01*
G01*
X145425000Y-90047500D01*
G75*
G02*
X145175000Y-89797500I0J250000D01*
G01*
X145175000Y-88872500D01*
G75*
G02*
X145425000Y-88622500I250000J0D01*
G01*
G37*
%TD.AperFunction*%
%TD*%
%TO.P,R1,1*%
%TO.N,GND*%
%TA.AperFunction,SMDPad,CuDef*%
G36*
G01*
X147965000Y-85647500D02*
X149215000Y-85647500D01*
G75*
G02*
X149465000Y-85897500I0J-250000D01*
G01*
X149465000Y-86822500D01*
G75*
G02*
X149215000Y-87072500I-250000J0D01*
G01*
X147965000Y-87072500D01*
G75*
G02*
X147715000Y-86822500I0J250000D01*
G01*
X147715000Y-85897500D01*
G75*
G02*
X147965000Y-85647500I250000J0D01*
G01*
G37*
%TD.AperFunction*%
%TO.P,R1,2*%
%TO.N,VBatSensor*%
%TA.AperFunction,SMDPad,CuDef*%
G36*
G01*
X147965000Y-88622500D02*
X149215000Y-88622500D01*
G75*
G02*
X149465000Y-88872500I0J-250000D01*
G01*
X149465000Y-89797500D01*
G75*
G02*
X149215000Y-90047500I-250000J0D01*
G01*
X147965000Y-90047500D01*
G75*
G02*
X147715000Y-89797500I0J250000D01*
G01*
X147715000Y-88872500D01*
G75*
G02*
X147965000Y-88622500I250000J0D01*
G01*
G37*
%TD.AperFunction*%
%TD*%
D16*
%TO.N,GND*%
X148590000Y-101600000D02*
X148590000Y-99060000D01*
X148590000Y-99060000D02*
X152400000Y-95250000D01*
D17*
X144849990Y-88634320D02*
X145186820Y-88297490D01*
X147160000Y-92710000D02*
X144849990Y-90399990D01*
X144849990Y-90399990D02*
X144849990Y-88634320D01*
X148590000Y-86620670D02*
X148590000Y-86360000D01*
X146913180Y-88297490D02*
X148590000Y-86620670D01*
X145186820Y-88297490D02*
X146913180Y-88297490D01*
D18*
X142000000Y-83870000D02*
X152350000Y-83870000D01*
D17*
X148590000Y-86360000D02*
X152400000Y-86360000D01*
D16*
X151130000Y-101600000D02*
X151130000Y-97155000D01*
X152400000Y-83820000D02*
X154305000Y-83820000D01*
X152400000Y-83820000D02*
X153670000Y-85090000D01*
X152400000Y-83820000D02*
X152400000Y-86360000D01*
D17*
%TO.N,3.3v*%
X138684999Y-95835001D02*
X139369998Y-96520000D01*
X139700000Y-90170000D02*
X138684999Y-91185001D01*
X138684999Y-91185001D02*
X138684999Y-95835001D01*
X139369998Y-96520000D02*
X139860000Y-96520000D01*
%TO.N,VBatSensor*%
X146050000Y-89335000D02*
X148590000Y-89335000D01*
X148590000Y-94310002D02*
X147650002Y-95250000D01*
X148590000Y-89335000D02*
X148590000Y-94310002D01*
X147650002Y-95250000D02*
X147320000Y-95250000D01*
D16*
%TO.N,12v*%
X135890000Y-101600000D02*
X135890000Y-97790000D01*
X135890000Y-97790000D02*
X134620000Y-96520000D01*
X138430000Y-101600000D02*
X138430000Y-99060000D01*
D18*
X137400000Y-83870000D02*
X134670000Y-83870000D01*
D17*
X146050000Y-86360000D02*
X134620000Y-86360000D01*
D16*
X135890000Y-97155000D02*
X136207500Y-96837500D01*
X135890000Y-101600000D02*
X135890000Y-97155000D01*
X138430000Y-99060000D02*
X136207500Y-96837500D01*
X136207500Y-96837500D02*
X134620000Y-95250000D01*
X135255000Y-83185000D02*
X133350000Y-85090000D01*
X134620000Y-83820000D02*
X134620000Y-86360000D01*
X134620000Y-83820000D02*
X132715000Y-83820000D01*
D17*
%TO.N,SCL*%
X141035001Y-95325001D02*
X141035001Y-101534999D01*
X141035001Y-101534999D02*
X140970000Y-101600000D01*
X140960000Y-95250000D02*
X141035001Y-95325001D01*
X139860000Y-95250000D02*
X140960000Y-95250000D01*
%TO.N,SDA*%
X139860000Y-92710000D02*
X142240000Y-92710000D01*
X143510000Y-93980000D02*
X143510000Y-101600000D01*
X142240000Y-92710000D02*
X143510000Y-93980000D01*
%TO.N,T*%
X147160000Y-100490000D02*
X146050000Y-101600000D01*
X147160000Y-96520000D02*
X147160000Y-100490000D01*
%TD*%
D19*
%TO.N,GND*%
G36*
X154788001Y-98933000D02*
G01*
X151257000Y-98933000D01*
X151257000Y-85228760D01*
X151362317Y-85464312D01*
X151703045Y-85635159D01*
X152070557Y-85736250D01*
X152450729Y-85763701D01*
X152828951Y-85716457D01*
X153190690Y-85596333D01*
X153437683Y-85464312D01*
X153569619Y-85169224D01*
X152400000Y-83999605D01*
X152385858Y-84013748D01*
X152206253Y-83834143D01*
X152220395Y-83820000D01*
X152206253Y-83805858D01*
X152385858Y-83626253D01*
X152400000Y-83640395D01*
X152414143Y-83626253D01*
X152593748Y-83805858D01*
X152579605Y-83820000D01*
X153749224Y-84989619D01*
X154044312Y-84857683D01*
X154215159Y-84516955D01*
X154316250Y-84149443D01*
X154343701Y-83769271D01*
X154296457Y-83391049D01*
X154176333Y-83029310D01*
X154044312Y-82782317D01*
X153808760Y-82677000D01*
X154788000Y-82677000D01*
X154788001Y-98933000D01*
G37*
X154788001Y-98933000D02*
X151257000Y-98933000D01*
X151257000Y-85228760D01*
X151362317Y-85464312D01*
X151703045Y-85635159D01*
X152070557Y-85736250D01*
X152450729Y-85763701D01*
X152828951Y-85716457D01*
X153190690Y-85596333D01*
X153437683Y-85464312D01*
X153569619Y-85169224D01*
X152400000Y-83999605D01*
X152385858Y-84013748D01*
X152206253Y-83834143D01*
X152220395Y-83820000D01*
X152206253Y-83805858D01*
X152385858Y-83626253D01*
X152400000Y-83640395D01*
X152414143Y-83626253D01*
X152593748Y-83805858D01*
X152579605Y-83820000D01*
X153749224Y-84989619D01*
X154044312Y-84857683D01*
X154215159Y-84516955D01*
X154316250Y-84149443D01*
X154343701Y-83769271D01*
X154296457Y-83391049D01*
X154176333Y-83029310D01*
X154044312Y-82782317D01*
X153808760Y-82677000D01*
X154788000Y-82677000D01*
X154788001Y-98933000D01*
%TO.N,12v*%
G36*
X132975688Y-82782317D02*
G01*
X132804841Y-83123045D01*
X132703750Y-83490557D01*
X132676299Y-83870729D01*
X132723543Y-84248951D01*
X132843667Y-84610690D01*
X132975688Y-84857683D01*
X133270776Y-84989619D01*
X134440395Y-83820000D01*
X134426253Y-83805858D01*
X134605858Y-83626253D01*
X134620000Y-83640395D01*
X134634143Y-83626253D01*
X134813748Y-83805858D01*
X134799605Y-83820000D01*
X134813748Y-83834143D01*
X134634143Y-84013748D01*
X134620000Y-83999605D01*
X133450381Y-85169224D01*
X133582317Y-85464312D01*
X133923045Y-85635159D01*
X134290557Y-85736250D01*
X134670729Y-85763701D01*
X135048951Y-85716457D01*
X135410690Y-85596333D01*
X135657683Y-85464312D01*
X135763000Y-85228760D01*
X135763000Y-98933000D01*
X132232000Y-98933000D01*
X132232000Y-82677000D01*
X133211240Y-82677000D01*
X132975688Y-82782317D01*
G37*
X132975688Y-82782317D02*
X132804841Y-83123045D01*
X132703750Y-83490557D01*
X132676299Y-83870729D01*
X132723543Y-84248951D01*
X132843667Y-84610690D01*
X132975688Y-84857683D01*
X133270776Y-84989619D01*
X134440395Y-83820000D01*
X134426253Y-83805858D01*
X134605858Y-83626253D01*
X134620000Y-83640395D01*
X134634143Y-83626253D01*
X134813748Y-83805858D01*
X134799605Y-83820000D01*
X134813748Y-83834143D01*
X134634143Y-84013748D01*
X134620000Y-83999605D01*
X133450381Y-85169224D01*
X133582317Y-85464312D01*
X133923045Y-85635159D01*
X134290557Y-85736250D01*
X134670729Y-85763701D01*
X135048951Y-85716457D01*
X135410690Y-85596333D01*
X135657683Y-85464312D01*
X135763000Y-85228760D01*
X135763000Y-98933000D01*
X132232000Y-98933000D01*
X132232000Y-82677000D01*
X133211240Y-82677000D01*
X132975688Y-82782317D01*
%TD*%
M02*
